<svg width="421" height="140" viewBox="0 0 421 140" fill="none" xmlns="http://www.w3.org/2000/svg">
<path d="M2.07345 71.1168L1.00088 59.554C1.27584 59.5285 1.47807 59.2849 1.45256 59.01L0.870093 52.7307C0.727308 51.1914 0.894815 49.6953 1.32104 48.3038C1.40089 48.0432 1.25717 47.7673 0.999395 47.6825C1.93243 45.0376 3.7727 42.7906 6.18181 41.3546C6.31575 41.5906 6.61453 41.6771 6.85436 41.5475C8.13453 40.8554 9.56828 40.3963 11.1055 40.2329L16.5201 39.6574C16.7947 39.6282 16.9937 39.382 16.9645 39.1074L26.7994 38.0621C26.8286 38.3367 27.0749 38.5356 27.3495 38.5064L38.1789 37.3554C38.4534 37.3263 38.6524 37.08 38.6232 36.8054L48.4582 35.7601C48.4874 36.0347 48.7336 36.2336 49.0082 36.2044L59.8376 35.0535C60.1122 35.0243 60.3111 34.778 60.2819 34.5034L70.1169 33.4581C70.1461 33.7327 70.3923 33.9316 70.6669 33.9025L81.4963 32.7515C81.7709 32.7223 81.9698 32.476 81.9406 32.2014L91.7756 31.1561C91.8048 31.4307 92.051 31.6297 92.3256 31.6005L103.155 30.4495C103.43 30.4203 103.629 30.174 103.599 29.8994L113.434 28.8541C113.463 29.1287 113.71 29.3277 113.984 29.2985L124.814 28.1475C125.088 28.1183 125.287 27.872 125.258 27.5975L135.093 26.5521C135.122 26.8267 135.368 27.0257 135.643 26.9965L146.472 25.8455C146.747 25.8163 146.946 25.5701 146.917 25.2955L156.752 24.2502C156.781 24.5248 157.027 24.7237 157.302 24.6945L168.131 23.5435C168.406 23.5143 168.605 23.2681 168.575 22.9935L178.41 21.9482C178.44 22.2228 178.686 22.4217 178.96 22.3925L189.79 21.2415C190.064 21.2124 190.263 20.9661 190.234 20.6915L200.069 19.6462C200.098 19.9208 200.345 20.1197 200.619 20.0905L211.449 18.9396C211.723 18.9104 211.922 18.6641 211.893 18.3895L221.728 17.3442C221.757 17.6188 222.003 17.8177 222.278 17.7886L233.107 16.6376C233.382 16.6084 233.581 16.3621 233.552 16.0875L243.387 15.0422C243.416 15.3168 243.662 15.5158 243.937 15.4866L254.766 14.3356C255.041 14.3064 255.24 14.0601 255.21 13.7855L265.045 12.7402C265.074 13.0148 265.321 13.2138 265.595 13.1846L276.425 12.0336C276.699 12.0044 276.898 11.7581 276.869 11.4835L286.704 10.4382C286.733 10.7128 286.979 10.9118 287.254 10.8826L298.083 9.73161C298.358 9.70242 298.557 9.45616 298.528 9.18156L308.363 8.13626C308.392 8.41086 308.638 8.6098 308.913 8.58061L319.742 7.42962C320.017 7.40044 320.216 7.15417 320.186 6.87958L330.021 5.83427C330.051 6.10887 330.297 6.30781 330.571 6.27863L341.401 5.12764C341.675 5.09845 341.874 4.85219 341.845 4.57759L351.68 3.53229C351.709 3.80688 351.956 4.00583 352.23 3.97664L363.059 2.82565C363.334 2.79647 363.533 2.5502 363.504 2.27561L373.339 1.2303C373.368 1.5049 373.614 1.70384 373.889 1.67466L379.304 1.09916C380.363 0.986567 381.416 1.02272 382.436 1.19534C382.705 1.24082 382.96 1.06261 383.011 0.796007C384.831 1.18272 386.539 1.9886 387.995 3.14804C387.822 3.3567 387.846 3.66681 388.052 3.8454C388.835 4.52335 389.532 5.31298 390.118 6.20226L393.562 11.4219C393.714 11.6524 394.024 11.716 394.254 11.564L400.59 21.1686C400.36 21.3207 400.296 21.6308 400.448 21.8613L407.335 32.3007C407.487 32.5312 407.797 32.5948 408.028 32.4427L414.363 42.0474C414.133 42.1994 414.069 42.5096 414.221 42.7401L417.665 47.9598C418.767 49.6315 419.368 51.442 419.53 53.2466C419.554 53.5181 419.792 53.7193 420.062 53.7006C420.235 57.3457 418.717 60.9241 415.975 63.332C415.8 63.1243 415.491 63.0936 415.278 63.2646C413.868 64.4016 412.149 65.2279 410.18 65.5962L404.781 66.6063C404.509 66.657 404.33 66.9182 404.381 67.1897L394.565 69.026C394.514 68.7546 394.253 68.5757 393.982 68.6265L383.183 70.6467C382.912 70.6974 382.733 70.9586 382.784 71.2301L372.968 73.0664C372.917 72.795 372.656 72.6161 372.384 72.6669L361.586 74.6871C361.314 74.7379 361.135 74.9991 361.186 75.2705L351.37 77.1068C351.319 76.8354 351.058 76.6565 350.787 76.7073L339.988 78.7275C339.717 78.7783 339.538 79.0395 339.589 79.3109L329.773 81.1472C329.722 80.8758 329.461 80.6969 329.189 80.7477L318.391 82.7679C318.119 82.8187 317.94 83.0799 317.991 83.3513L308.175 85.1876C308.125 84.9162 307.863 84.7373 307.592 84.7881L296.793 86.8083C296.522 86.8591 296.343 87.1203 296.394 87.3917L286.578 89.228C286.527 88.9566 286.266 88.7777 285.994 88.8285L275.196 90.8487C274.924 90.8995 274.745 91.1607 274.796 91.4321L264.98 93.2685C264.93 92.997 264.668 92.8181 264.397 92.8689L253.598 94.8891C253.327 94.9399 253.148 95.2011 253.199 95.4725L243.383 97.3089C243.332 97.0374 243.071 96.8585 242.799 96.9093L232.001 98.9295C231.729 98.9803 231.55 99.2415 231.601 99.513L221.785 101.349C221.735 101.078 221.473 100.899 221.202 100.95L210.403 102.97C210.132 103.021 209.953 103.282 210.004 103.553L200.188 105.39C200.137 105.118 199.876 104.939 199.604 104.99L188.806 107.01C188.534 107.061 188.355 107.322 188.406 107.594L178.59 109.43C178.54 109.159 178.278 108.98 178.007 109.031L167.208 111.051C166.937 111.102 166.758 111.363 166.809 111.634L156.993 113.47C156.942 113.199 156.681 113.02 156.41 113.071L145.611 115.091C145.339 115.142 145.16 115.403 145.211 115.675L135.395 117.511C135.345 117.239 135.083 117.061 134.812 117.111L124.013 119.132C123.742 119.182 123.563 119.444 123.614 119.715L113.798 121.551C113.747 121.28 113.486 121.101 113.215 121.152L102.416 123.172C102.144 123.223 101.966 123.484 102.016 123.755L92.2005 125.592C92.1497 125.32 91.8885 125.141 91.6171 125.192L80.8183 127.212C80.5469 127.263 80.368 127.524 80.4188 127.796L70.603 129.632C70.5522 129.361 70.291 129.182 70.0196 129.233L59.2209 131.253C58.9494 131.304 58.7705 131.565 58.8213 131.836L49.0055 133.673C48.9548 133.401 48.6935 133.222 48.4221 133.273L37.6234 135.293C37.3519 135.344 37.1731 135.605 37.2238 135.877L27.4081 137.713C27.3573 137.442 27.0961 137.263 26.8246 137.313L21.4253 138.324C19.7935 138.629 18.1856 138.574 16.6783 138.219C16.4129 138.156 16.1471 138.318 16.0794 138.581C13.1704 137.765 10.6578 135.868 9.07654 133.294C9.31075 133.157 9.39333 132.857 9.26051 132.619C8.50608 131.266 8.01303 129.735 7.8597 128.082L7.27723 121.803C7.25173 121.528 7.00815 121.325 6.73319 121.351L5.66062 109.788C5.93558 109.763 6.1378 109.519 6.1123 109.244L4.94736 96.6855C4.92186 96.4106 4.67828 96.2083 4.40332 96.2338L3.33075 84.671C3.60571 84.6455 3.80794 84.402 3.78243 84.127L2.6175 71.5685C2.59199 71.2935 2.34841 71.0913 2.07345 71.1168Z" stroke="#FF1276" stroke-linecap="round" stroke-dasharray="11 11"/>
</svg>
