<svg width="16" height="16" viewBox="0 0 16 16" fill="none" xmlns="http://www.w3.org/2000/svg">
<path d="M11.2886 10.9615C11.2886 10.9615 13.6315 8.63851 14.4261 7.82056C16.9411 5.36673 15.6877 0.311843 15.6877 0.311843C15.6877 0.311843 10.6496 -0.93961 8.192 1.57148C6.27507 3.43639 5.02989 4.72874 5.02989 4.72874C5.02989 4.72874 1.88416 4.07438 0 5.95565L10.0352 16C11.9194 14.0942 11.2886 10.9615 11.2886 10.9615ZM10.0598 3.59998C10.2119 3.44788 10.3926 3.32722 10.5915 3.24489C10.7904 3.16257 11.0036 3.12019 11.2189 3.12019C11.4343 3.12019 11.6475 3.16257 11.8464 3.24489C12.0452 3.32722 12.2259 3.44788 12.3781 3.59998C12.6071 3.82883 12.7629 4.12032 12.826 4.4376C12.8891 4.75488 12.8565 5.08371 12.7325 5.38253C12.6084 5.68134 12.3984 5.93672 12.129 6.1164C11.8596 6.29607 11.5429 6.39197 11.2189 6.39197C10.895 6.39197 10.5783 6.29607 10.3089 6.1164C10.0395 5.93672 9.82949 5.68134 9.70543 5.38253C9.58137 5.08371 9.54882 4.75488 9.61189 4.4376C9.67496 4.12032 9.83082 3.82883 10.0598 3.59998ZM0.8192 15.1821C2.3356 15.1389 3.78728 14.5591 4.9152 13.5462L2.4576 11.0923C0.8192 11.9103 0.8192 15.1821 0.8192 15.1821Z" fill="#5C5F62"/>
</svg>
