<svg width="14" height="14" viewBox="0 0 14 14" fill="none" xmlns="http://www.w3.org/2000/svg">
<path fill-rule="evenodd" clip-rule="evenodd" d="M5.3229 11.5C5.3229 12.328 5.9934 13 6.8229 13C7.6524 13 8.3229 12.328 8.3229 11.5V8.5009H11.3247C12.1542 8.5009 12.8247 7.8289 12.8247 7.0009C12.8247 6.1729 12.1542 5.5009 11.3247 5.5009H8.3229V2.5C8.3229 1.672 7.6524 1 6.8229 1C5.9934 1 5.3229 1.672 5.3229 2.5V5.5009H2.32471C1.49521 5.5009 0.824707 6.1729 0.824707 7.0009C0.824707 7.8289 1.49521 8.5009 2.32471 8.5009H5.3229V11.5Z" fill="#6F47EB"/>
<path d="M8.3229 8.5009V7.9009H7.7229V8.5009H8.3229ZM8.3229 5.5009H7.7229V6.1009H8.3229V5.5009ZM5.3229 5.5009V6.1009H5.9229V5.5009H5.3229ZM5.3229 8.5009H5.9229V7.9009H5.3229V8.5009ZM6.8229 12.4C6.32517 12.4 5.9229 11.997 5.9229 11.5H4.7229C4.7229 12.659 5.66164 13.6 6.8229 13.6V12.4ZM7.7229 11.5C7.7229 11.997 7.32064 12.4 6.8229 12.4V13.6C7.98417 13.6 8.9229 12.659 8.9229 11.5H7.7229ZM7.7229 8.5009V11.5H8.9229V8.5009H7.7229ZM11.3247 7.9009H8.3229V9.1009H11.3247V7.9009ZM12.2247 7.0009C12.2247 7.49792 11.8224 7.9009 11.3247 7.9009V9.1009C12.486 9.1009 13.4247 8.15988 13.4247 7.0009H12.2247ZM11.3247 6.1009C11.8224 6.1009 12.2247 6.50388 12.2247 7.0009H13.4247C13.4247 5.84192 12.486 4.9009 11.3247 4.9009V6.1009ZM8.3229 6.1009H11.3247V4.9009H8.3229V6.1009ZM7.7229 2.5V5.5009H8.9229V2.5H7.7229ZM6.8229 1.6C7.32064 1.6 7.7229 2.00298 7.7229 2.5H8.9229C8.9229 1.34102 7.98417 0.4 6.8229 0.4V1.6ZM5.9229 2.5C5.9229 2.00298 6.32517 1.6 6.8229 1.6V0.4C5.66164 0.4 4.7229 1.34102 4.7229 2.5H5.9229ZM5.9229 5.5009V2.5H4.7229V5.5009H5.9229ZM2.32471 6.1009H5.3229V4.9009H2.32471V6.1009ZM1.42471 7.0009C1.42471 6.50388 1.82697 6.1009 2.32471 6.1009V4.9009C1.16345 4.9009 0.224707 5.84192 0.224707 7.0009H1.42471ZM2.32471 7.9009C1.82697 7.9009 1.42471 7.49792 1.42471 7.0009H0.224707C0.224707 8.15988 1.16345 9.1009 2.32471 9.1009V7.9009ZM5.3229 7.9009H2.32471V9.1009H5.3229V7.9009ZM5.9229 11.5V8.5009H4.7229V11.5H5.9229Z" fill="#EEE9FD"/>
</svg>
